<svg xmlns="http://www.w3.org/2000/svg" xmlns:svg="http://www.w3.org/2000/svg" version="1.1" id="svg2151" width="512" height="512" viewBox="0 0 512 512">
  <g><ellipse style="fill: rgb(237, 248, 247);" cx="256" cy="256" rx="256" ry="256"/><g mask="url(#custom)" transform="matrix(0.479029, 0, 0, 0.479029, 90.439514, 97.90303)" style=""><g id="g2157" transform="matrix(1.3333333,0,0,-1.3333333,0,682.66667)"><g id="g2159" style="" transform="matrix(1.07893, 0, 0, 1.07893, -2.863248, -9.610388)"><g id="g2161" clip-path="url(#clipPath2165)"><g id="g2167" transform="translate(27,398.3975)"><path d="m 0,0 197.316,-122.696 c 19.4,-12.064 43.968,-12.064 63.368,0 L 455,-1.865" style="fill:none;stroke:#01354b;stroke-width:40;stroke-linecap:round;stroke-linejoin:round;stroke-miterlimit:10;stroke-dasharray:none;stroke-opacity:1" id="path2169"/></g><g id="g2171" transform="translate(238,80)"><path d="m 0,0 h -158 c -33.137,0 -60,26.863 -60,60 v 231 c 0,33.137 26.863,60 60,60 h 352 c 33.137,0 60,-26.863 60,-60 V 165" style="fill:none;stroke:#01354b;stroke-width:40;stroke-linecap:round;stroke-linejoin:round;stroke-miterlimit:10;stroke-dasharray:none;stroke-opacity:1" id="path2173"/></g><g id="g2175" transform="translate(344.5034,113)"><path d="M 0,0 C 0,33.137 26.863,60 60,60 93.137,60 120,33.137 120,0 120,-33.137 93.137,-60 60,-60 26.863,-60 0,-33.137 0,0 Z" style="fill:none;stroke:#01354b;stroke-width:40;stroke-linecap:round;stroke-linejoin:round;stroke-miterlimit:10;stroke-dasharray:none;stroke-opacity:1" id="path2177"/></g><g id="g2179" transform="translate(492,79.9004)"><path d="m 0,0 -28.778,20.738 c 0.836,3.991 1.281,8.123 1.281,12.362 0,5.052 -0.631,9.955 -1.807,14.642 L 0,70.122 -10.915,87.1 -43.806,74.2 c -7.585,8.06 -17.365,14.026 -28.395,16.925 L -78.497,126.1 H -96 l -6.377,-34.863 c -11.565,-2.952 -21.788,-9.26 -29.564,-17.831 L -166.185,85.1 -176,66.563 -145.937,46.666 c -1.009,-4.361 -1.56,-8.898 -1.56,-13.566 0,-5.037 0.629,-9.924 1.798,-14.598 L -174,-3.921 l 9.376,-16.979 33.194,13.154 c 7.617,-8.19 17.491,-14.249 28.638,-17.18 l 6.295,-34.974 h 18 l 5.567,34.79 c 12.211,3.046 22.931,9.835 30.893,19.075 l 33.953,-12.047 z" style="fill:none;stroke:#01354b;stroke-width:40;stroke-linecap:round;stroke-linejoin:round;stroke-miterlimit:10;stroke-dasharray:none;stroke-opacity:1" id="path2181"/></g></g></g></g></g></g>
  
</svg>